#!OML:ASF X:\für Bonn\!DataBase\2005_08_11_Bastian_Final\c3d\Bastian.ASF
:FULLY-SPECIFIED
:DEGREES
62
root -7.786 16.3611 8.52393 535.861 29.1869 -172.314
lowerback 22.1557 -1.39763 -0.991822
upperback 16.5197 1.3592 1.0739
thorax 5.84369 1.90234 1.6363
lowerneck -12.3268 -13.2498 -23.5176
upperneck -7.98032 -14.4011 33.409
head 4.74221 -5.80525 13.705
rclavicle -2.62396e-014 1.31198e-014
rhumerus -25.771 22.2423 -92.9145
rradius 63.3489
rwrist 12.0615
rhand -19.4705 7.35796
rfingers 7.12502
rthumb 6.851 -22.5112
lclavicle -2.62396e-014 1.31198e-014
lhumerus -21.5024 -43.5786 99.5001
lradius 67.1858
lwrist 9.75329
lhand -14.3662 -11.1256
lfingers 7.12502
lthumb 11.776 18.5234
rfemur 11.8706 -1.74804 26.8105
rtibia 39.3042
rfoot -28.9516 1.56509
rtoes -12.2595
lfemur -31.1706 -7.20238 -3.3365
ltibia 33.725
lfoot -8.1769 -6.71604
ltoes -40.4446
63
root -7.7579 16.3688 8.40341 535.97 29.0424 -172.328
lowerback 22.1334 -1.30897 -1.26858
upperback 16.431 1.40318 1.05057
thorax 5.75045 1.89129 1.75495
lowerneck -12.4608 -13.3324 -23.382
upperneck -7.96303 -14.5089 33.4608
head 4.79769 -5.84021 13.6706
rclavicle -5.40694e-014 6.20208e-014
rhumerus -26.0603 22.2214 -92.9677
rradius 63.2114
rwrist 12.0061
rhand -19.3616 7.22559
rfingers 7.12502
rthumb 6.95608 -22.6401
lclavicle -5.40694e-014 6.20208e-014
lhumerus -21.4643 -44.1055 99.4948
lradius 67.1279
lwrist 10.0206
lhand -14.6764 -11.1084
lfingers 7.12502
lthumb 11.4768 18.5574
rfemur 12.2908 -1.51883 26.8468
rtibia 39.0461
rfoot -28.5733 1.24715
rtoes -12.8279
lfemur -31.2532 -7.17504 -3.55863
ltibia 34.2062
lfoot -7.74869 -7.07305
ltoes -40.2895
64
root -7.7287 16.3783 8.28271 536.077 28.8795 -172.345
lowerback 22.1117 -1.22772 -1.58779
upperback 16.3459 1.4311 1.04545
thorax 5.66185 1.8679 1.92015
lowerneck -12.5636 -13.3916 -23.2715
upperneck -7.97952 -14.5776 33.5372
head 4.83323 -5.85854 13.6613
rclavicle -3.65764e-014 1.35174e-014
rhumerus -26.3592 22.3004 -93.0066
rradius 63.0622
rwrist 11.9239
rhand -19.3642 7.06741
rfingers 7.12502
rthumb 6.95356 -22.7984
lclavicle -3.65764e-014 1.35174e-014
lhumerus -21.4148 -44.5411 99.4893
lradius 67.0803
lwrist 10.2033
lhand -14.9373 -11.1134
lfingers 7.12502
lthumb 11.2252 18.5663
rfemur 12.7014 -1.30522 26.8892
rtibia 38.8026
rfoot -28.1614 0.908229
rtoes -13.3084
lfemur -31.3333 -7.16423 -3.78158
ltibia 34.6881
lfoot -7.37244 -7.39098
ltoes -39.9996
65
root -7.69987 16.3871 8.16234 536.2 28.6848 -172.356
lowerback 22.0692 -1.15038 -1.89127
upperback 16.2637 1.45728 1.05634
thorax 5.58684 1.84461 2.09497
lowerneck -12.5721 -13.4433 -23.1614
upperneck -8.05978 -14.6408 33.5872
head 4.82909 -5.88567 13.6448
rclavicle 4.37326e-014 -2.42517e-014
rhumerus -26.6561 22.3669 -93.0148
rradius 62.9554
rwrist 11.8216
rhand -19.33 6.88233
rfingers 7.12502
rthumb 6.98659 -22.9824
lclavicle 4.37326e-014 -2.42517e-014
lhumerus -21.3646 -44.8694 99.5264
lradius 67.0096
lwrist 10.2995
lhand -15.1409 -11.1982
lfingers 7.12502
lthumb 11.0288 18.4921
rfemur 13.0748 -1.16034 26.918
rtibia 38.5891
rfoot -27.7372 0.630852
rtoes -13.7457
lfemur -31.4293 -7.19067 -3.98684
ltibia 35.1695
lfoot -7.07507 -7.67984
ltoes -39.6903
66
root -7.67073 16.3976 8.04206 536.299 28.4854 -172.376
lowerback 22.0551 -1.07738 -2.18189
upperback 16.1841 1.48332 1.04153
thorax 5.50179 1.8259 2.23436
lowerneck -12.5706 -13.4804 -23.01
upperneck -8.1229 -14.6935 33.6631
head 4.82578 -5.90788 13.6343
rclavicle 1.27222e-014 -3.18055e-014
rhumerus -26.9365 22.476 -93.0714
rradius 62.8234
rwrist 11.683
rhand -19.3796 6.70452
rfingers 7.12502
rthumb 6.93876 -23.1618
lclavicle 1.27222e-014 -3.18055e-014
lhumerus -21.3258 -45.1814 99.5265
lradius 66.9753
lwrist 10.3455
lhand -15.2904 -11.186
lfingers 7.12502
lthumb 10.8847 18.5119
rfemur 13.4499 -1.07061 26.9211
rtibia 38.4112
rfoot -27.2938 0.347376
rtoes -14.3677
lfemur -31.4922 -7.20746 -4.20938
ltibia 35.6473
lfoot -6.88498 -7.95427
ltoes -39.5521
67
root -7.64286 16.4091 7.92297 536.42 28.3035 -172.389
lowerback 22.0376 -1.00146 -2.46828
upperback 16.1047 1.51294 1.04653
thorax 5.4182 1.80824 2.39234
lowerneck -12.5129 -13.5203 -22.9668
upperneck -8.22779 -14.7424 33.7788
head 4.81532 -5.93304 13.6639
rclavicle -2.42517e-014 1.98785e-014
rhumerus -27.2179 22.6819 -93.0815
rradius 62.7265
rwrist 11.4418
rhand -19.3983 6.54541
rfingers 7.12502
rthumb 6.9207 -23.3215
lclavicle -2.42517e-014 1.98785e-014
lhumerus -21.2796 -45.4641 99.5409
lradius 66.977
lwrist 10.4507
lhand -15.3947 -11.1603
lfingers 7.12502
lthumb 10.7841 18.5428
rfemur 13.7707 -0.982777 26.9228
rtibia 38.2947
rfoot -26.8285 0.0770234
rtoes -14.9517
lfemur -31.5557 -7.21777 -4.42552
ltibia 36.1148
lfoot -6.76347 -8.1675
ltoes -39.6067
68
root -7.61545 16.4221 7.8044 536.527 28.1215 -172.404
lowerback 22.0309 -0.930325 -2.72286
upperback 16.0268 1.54313 1.04086
thorax 5.33121 1.79548 2.52068
lowerneck -12.3861 -13.5593 -22.9543
upperneck -8.38399 -14.7892 33.9274
head 4.78607 -5.96383 13.7159
rclavicle 3.18055e-015 -4.13472e-014
rhumerus -27.4843 22.8386 -93.1062
rradius 62.6277
rwrist 11.2074
rhand -19.4125 6.41536
rfingers 7.12502
rthumb 6.90695 -23.452
lclavicle 3.18055e-015 -4.13472e-014
lhumerus -21.2296 -45.6989 99.5549
lradius 66.9678
lwrist 10.5277
lhand -15.4459 -11.1708
lfingers 7.12502
lthumb 10.7347 18.5349
rfemur 14.0729 -0.896053 26.9309
rtibia 38.2354
rfoot -26.3629 -0.174505
rtoes -15.4037
lfemur -31.5866 -7.24012 -4.63689
ltibia 36.5641
lfoot -6.65554 -8.37932
ltoes -39.5664
69
root -7.59175 16.4374 7.68675 536.695 28.0495 -172.411
lowerback 21.9841 -0.824677 -2.89453
upperback 15.9435 1.62809 1.00848
thorax 5.25361 1.81715 2.56472
lowerneck -12.208 -13.6136 -22.9931
upperneck -8.58347 -14.8549 34.1245
head 4.75358 -6.0079 13.7954
rclavicle 3.06128e-014 -8.74653e-015
rhumerus -27.693 22.8714 -93.1527
rradius 62.5061
rwrist 11.024
rhand -19.3684 6.25231
rfingers 7.12502
rthumb 6.94958 -23.6136
lclavicle 3.06128e-014 -8.74653e-015
lhumerus -21.1498 -45.996 99.5204
lradius 66.999
lwrist 10.6187
lhand -15.438 -11.0827
lfingers 7.12502
lthumb 10.7423 18.6227
rfemur 14.2398 -0.750568 26.9211
rtibia 38.2516
rfoot -25.8229 -0.365521
rtoes -15.9529
lfemur -31.6234 -7.21098 -4.82987
ltibia 36.98
lfoot -6.5996 -8.48255
ltoes -39.6257
70
root -7.56896 16.4568 7.56726 536.863 27.9846 -172.419
lowerback 21.9197 -0.718655 -2.98882
upperback 15.8504 1.72362 0.965638
thorax 5.17181 1.8506 2.55199
lowerneck -11.905 -13.6724 -23.1365
upperneck -8.83298 -14.9351 34.3916
head 4.71056 -6.07071 13.9263
rclavicle 3.45885e-014 -2.3059e-014
rhumerus -27.9475 22.8769 -93.1808
rradius 62.4445
rwrist 10.8381
rhand -19.2604 6.0863
rfingers 7.12502
rthumb 7.05382 -23.7762
lclavicle 3.45885e-014 -2.3059e-014
lhumerus -21.1612 -46.3179 99.5572
lradius 67.0536
lwrist 10.687
lhand -15.4356 -10.9677
lfingers 7.12502
lthumb 10.7446 18.7375
rfemur 14.3494 -0.671318 26.8841
rtibia 38.323
rfoot -25.2379 -0.57603
rtoes -16.7546
lfemur -31.6289 -7.23454 -5.01171
ltibia 37.3747
lfoot -6.56531 -8.52459
ltoes -39.648
71
root -7.54628 16.4769 7.44641 537.028 27.9158 -172.454
lowerback 21.8218 -0.632653 -3.09723
upperback 15.7737 1.79441 0.914357
thorax 5.12756 1.87096 2.54427
lowerneck -11.6366 -13.7265 -23.3267
upperneck -9.05599 -15.0042 34.683
head 4.68634 -6.12383 14.0791
rclavicle 2.38542e-014 -2.94201e-014
rhumerus -28.144 22.8956 -93.2052
rradius 62.3613
rwrist 10.71
rhand -19.0671 5.97558
rfingers 7.12502
rthumb 7.24037 -23.8806
lclavicle 2.38542e-014 -2.94201e-014
lhumerus -21.1247 -46.5013 99.5556
lradius 67.1079
lwrist 10.7629
lhand -15.3299 -10.8962
lfingers 7.12502
lthumb 10.8466 18.8037
rfemur 14.4194 -0.613552 26.8052
rtibia 38.4545
rfoot -24.5947 -0.742045
rtoes -17.4234
lfemur -31.6195 -7.24322 -5.2305
ltibia 37.7455
lfoot -6.54613 -8.57252
ltoes -39.635
72
root -7.52471 16.4967 7.32517 537.229 27.8775 -172.433
lowerback 21.7175 -0.554993 -3.17071
upperback 15.6974 1.85859 0.876725
thorax 5.08667 1.88948 2.53301
lowerneck -11.3811 -13.774 -23.5188
upperneck -9.26177 -15.0663 34.9682
head 4.66705 -6.17291 14.2321
rclavicle -4.77083e-015 3.97569e-015
rhumerus -28.2697 22.9983 -93.2514
rradius 62.2496
rwrist 10.5825
rhand -18.8793 5.80648
rfingers 7.12502
rthumb 7.42167 -24.0433
lclavicle -4.77083e-015 3.97569e-015
lhumerus -21.1121 -46.6389 99.5389
lradius 67.1912
lwrist 10.7818
lhand -15.2503 -10.7712
lfingers 7.12502
lthumb 10.9233 18.9247
rfemur 14.4572 -0.530533 26.7738
rtibia 38.6253
rfoot -23.8685 -0.860996
rtoes -17.8538
lfemur -31.6149 -7.19514 -5.39827
ltibia 38.109
lfoot -6.54444 -8.64022
ltoes -39.6665
